<svg width="100%" height="501" viewBox="0 0 1404 501" fill="none" xmlns="http://www.w3.org/2000/svg">
<path d="M2 480.498C26.8637 478.66 51.7651 477.688 76.7042 477.583C91.9974 477.583 146.597 477.085 150.798 477.04C150.87 477.04 150.939 477.012 150.99 476.961C151.041 476.91 151.069 476.841 151.069 476.769L152.967 427.595C152.969 427.534 152.989 427.476 153.026 427.427C153.062 427.379 153.113 427.342 153.17 427.324C155.996 426.718 158.69 425.608 161.122 424.047C163.697 422.104 164.646 416.093 164.804 414.85C164.815 414.782 164.852 414.721 164.906 414.679C164.961 414.637 165.029 414.617 165.098 414.624L188.139 414.827C188.297 414.827 188.41 414.827 188.41 415.053C188.614 416.431 189.766 423.708 193.9 426.352C195.436 427.301 199.479 427.12 200.473 428.612C200.993 429.358 202.122 473.402 202.213 477.131C202.212 477.165 202.22 477.2 202.233 477.231C202.247 477.263 202.268 477.292 202.293 477.315C202.319 477.338 202.349 477.356 202.382 477.367C202.414 477.378 202.449 477.382 202.484 477.379C205.149 477.379 227.332 477.515 233.093 478.17C234.561 478.328 236.73 477.741 236.3 476.317C236.029 475.368 234.742 475.232 233.725 475.278L227.762 475.594C227.762 475.594 229.252 306.106 230.021 306.106L247.098 305.677C247.17 305.677 247.239 305.648 247.29 305.597C247.341 305.547 247.369 305.478 247.369 305.406L248.228 267.915C248.228 267.843 248.256 267.774 248.307 267.723C248.358 267.672 248.427 267.644 248.499 267.644C250.984 267.644 269.778 267.825 272.241 267.847C272.276 267.843 272.313 267.847 272.346 267.859C272.38 267.872 272.41 267.892 272.435 267.919C272.459 267.945 272.477 267.977 272.486 268.012C272.496 268.047 272.497 268.083 272.489 268.118L271.902 305.903C271.899 305.937 271.903 305.972 271.914 306.005C271.925 306.038 271.943 306.068 271.966 306.093C271.99 306.119 272.018 306.139 272.05 306.153C272.081 306.167 272.116 306.174 272.15 306.174L289.906 306.988C289.971 306.987 290.033 307.009 290.083 307.05C290.133 307.092 290.166 307.15 290.177 307.214C290.719 314.49 288.822 495.48 289.477 496.384C292.21 500.045 296.751 500.362 299.077 496.384C301.404 492.407 301.156 487.594 301.336 483.029C302.669 459.527 323.926 481.605 332.397 465.56C335.402 459.843 335.04 417.109 334.475 402.646C334.524 401.241 334.254 399.842 333.685 398.556C332.352 396.048 329.167 395.257 326.298 395.099C322.363 394.869 318.419 395.328 314.642 396.455C313.306 396.721 312.107 397.449 311.253 398.511C307.752 403.957 323.09 403.031 325.281 402.827C327.104 402.749 328.875 402.2 330.423 401.233C331.971 400.267 333.242 398.917 334.114 397.313C334.903 395.145 335.219 392.834 335.04 390.534L334.882 360.749C334.882 360.712 334.89 360.674 334.905 360.64C334.92 360.605 334.942 360.574 334.969 360.549C334.997 360.523 335.029 360.504 335.065 360.492C335.101 360.479 335.138 360.475 335.176 360.478C339.942 360.907 400.934 360.32 405.452 360.274C405.524 360.274 405.593 360.303 405.644 360.354C405.695 360.405 405.723 360.474 405.723 360.546L407.237 476.543C407.24 476.581 407.235 476.618 407.223 476.654C407.211 476.689 407.191 476.722 407.166 476.75C407.14 476.777 407.109 476.799 407.075 476.814C407.041 476.829 407.003 476.837 406.966 476.837L361.312 477.492C360.341 477.492 359.053 477.492 358.737 476.588C358.217 475.119 366.349 473.063 367.253 472.792C368.956 472.456 370.574 471.783 372.013 470.813C373.452 469.842 374.683 468.595 375.634 467.142C376.087 466.014 376.646 464.932 377.305 463.911C378.198 463.118 379.238 462.511 380.366 462.123C381.495 461.735 382.688 461.575 383.879 461.651L413.065 459.391C414.007 459.395 414.933 459.153 415.753 458.69C418.012 457.041 416.77 451.255 416.747 448.77C416.747 443.775 416.34 438.759 416.16 433.764C416.153 433.728 416.154 433.691 416.164 433.655C416.173 433.62 416.191 433.587 416.214 433.559C416.238 433.531 416.268 433.508 416.301 433.493C416.335 433.478 416.371 433.47 416.408 433.471C422.123 433.041 428.787 432.928 428.697 426.194L427.364 334.309C427.361 334.272 427.366 334.234 427.378 334.198C427.39 334.163 427.41 334.13 427.435 334.102C427.461 334.075 427.492 334.053 427.526 334.038C427.561 334.023 427.598 334.015 427.635 334.015L453.975 334.445C454.047 334.445 454.116 334.473 454.167 334.524C454.217 334.575 454.246 334.644 454.246 334.716C454.246 338.738 454.653 346.896 454.72 350.919C454.72 350.991 454.749 351.06 454.8 351.11C454.851 351.161 454.92 351.19 454.991 351.19H463.553C464.637 351.19 465.97 351.348 466.49 352.32C466.691 352.789 466.769 353.303 466.716 353.811L466.919 434.51C466.926 434.573 466.908 434.635 466.87 434.686C466.833 434.736 466.777 434.77 466.716 434.781C458.704 436.083 450.591 436.651 442.477 436.476C438.772 436.228 435.948 431.957 439.472 428.838C442.07 426.578 448.237 427.188 451.377 427.053L479.117 425.765C479.334 425.804 479.557 425.786 479.764 425.712C479.971 425.639 480.156 425.512 480.299 425.346C480.443 425.179 480.541 424.978 480.583 424.762C480.625 424.547 480.611 424.323 480.54 424.115C480.179 389.969 481.444 355.71 481.964 321.563C481.964 321.515 481.975 321.467 481.998 321.425C482.021 321.382 482.054 321.346 482.094 321.319C482.135 321.292 482.181 321.276 482.229 321.271C482.277 321.266 482.326 321.274 482.37 321.292L511.149 321.044C511.227 321.044 511.302 321.075 511.357 321.13C511.412 321.185 511.443 321.26 511.443 321.338L511.217 428.68C511.217 428.717 511.225 428.755 511.24 428.789C511.255 428.824 511.277 428.854 511.304 428.88C511.332 428.905 511.365 428.925 511.4 428.937C511.436 428.949 511.473 428.954 511.511 428.951L546.593 428.657C546.667 428.651 546.736 428.618 546.786 428.564C546.836 428.509 546.864 428.438 546.864 428.363L547.948 356.32C547.948 356.248 547.92 356.179 547.869 356.128C547.818 356.077 547.749 356.049 547.677 356.049C538.641 356.523 518.197 357.585 522.58 352.749C520.863 350.489 539.748 351.122 548.151 350.173C548.219 350.162 548.28 350.125 548.322 350.071C548.364 350.016 548.384 349.948 548.377 349.879L548.829 277.361C548.826 277.327 548.83 277.292 548.841 277.259C548.852 277.226 548.87 277.196 548.893 277.17C548.917 277.145 548.945 277.125 548.977 277.111C549.009 277.097 549.043 277.09 549.078 277.09L568.55 276.864C568.617 276.86 568.68 276.832 568.729 276.787C568.778 276.742 568.811 276.681 568.821 276.615C569.279 272.579 569.513 268.52 569.521 264.457L561.005 264.254L560.35 275.214C560.346 275.254 560.352 275.293 560.365 275.331C560.379 275.368 560.4 275.402 560.428 275.43C560.456 275.458 560.49 275.479 560.527 275.493C560.564 275.506 560.604 275.511 560.643 275.508L581.358 274.491C581.436 274.491 581.511 274.522 581.566 274.577C581.621 274.632 581.652 274.707 581.652 274.785C581.449 280.864 581.652 377.381 582.217 382.715C582.222 382.777 582.251 382.834 582.297 382.876C582.343 382.918 582.403 382.941 582.465 382.941H619.874C619.907 382.937 619.941 382.941 619.973 382.952C620.005 382.964 620.033 382.982 620.057 383.006C620.081 383.029 620.099 383.058 620.111 383.09C620.122 383.122 620.126 383.156 620.122 383.189C620.122 386.624 620.122 424.906 620.122 449.29C620.117 450.515 619.746 451.711 619.058 452.726C618.37 453.74 617.396 454.526 616.259 454.984V454.984C614.923 455.531 613.435 455.587 612.062 455.14C610.689 454.693 609.519 453.773 608.76 452.544C606.296 448.577 603.188 445.049 599.566 442.103C589.355 433.516 576.976 430.804 561.705 430.442C557.823 430.751 553.962 431.279 550.139 432.024C535.185 435.278 523.145 442.759 516.097 456.883C514.008 460.821 513.025 465.252 513.251 469.704C513.478 474.157 514.906 478.465 517.384 482.17C518.335 483.89 519.623 485.401 521.172 486.611C522.72 487.821 524.497 488.706 526.395 489.212C528.294 489.719 530.275 489.836 532.22 489.558C534.165 489.28 536.034 488.612 537.715 487.594C540.111 486.232 542.419 484.723 544.627 483.074C549.984 479.055 556.5 476.882 563.196 476.882C569.892 476.882 576.408 479.055 581.765 483.074C584.429 485.117 587.28 486.903 590.281 488.407C593.054 489.658 596.15 490.004 599.13 489.396C602.111 488.787 604.824 487.255 606.885 485.018C609.397 482.364 611.206 479.125 612.148 475.594C612.627 473.877 613.641 472.357 615.043 471.256C616.444 470.155 618.16 469.529 619.941 469.47V469.47L632.05 469.583C632.087 469.586 632.125 469.581 632.16 469.569C632.196 469.557 632.228 469.537 632.256 469.512C632.284 469.486 632.306 469.455 632.321 469.421C632.336 469.386 632.343 469.349 632.343 469.312L635.596 222.537C635.595 222.473 635.618 222.41 635.659 222.36C635.7 222.31 635.758 222.277 635.822 222.266L641.763 221.295C642.237 221.307 642.708 221.218 643.145 221.033C643.581 220.848 643.973 220.572 644.294 220.223C644.615 219.874 644.858 219.461 645.006 219.01C645.154 218.559 645.203 218.082 645.152 217.611C645.896 213.132 646.206 208.591 646.078 204.052C646.077 203.975 646.104 203.901 646.154 203.843C646.204 203.785 646.273 203.746 646.349 203.736L709.6 203.306C709.638 203.306 709.675 203.314 709.709 203.329C709.744 203.344 709.775 203.366 709.8 203.393C709.826 203.421 709.845 203.454 709.857 203.489C709.87 203.525 709.874 203.562 709.871 203.6L704.314 469.877C704.314 469.954 704.345 470.029 704.4 470.084C704.455 470.139 704.53 470.17 704.608 470.17L710.955 469.696C711.023 469.69 711.087 469.659 711.133 469.609C711.179 469.559 711.204 469.493 711.204 469.425L719.607 83.2863C719.607 83.2143 719.636 83.1454 719.687 83.0945C719.738 83.0437 719.807 83.0151 719.878 83.0151L744.004 82.2467C744.039 82.2498 744.073 82.2458 744.106 82.2347C744.139 82.2236 744.169 82.2058 744.195 82.1824C744.22 82.159 744.241 82.1306 744.254 82.0988C744.268 82.0671 744.275 82.0328 744.275 81.9981L747.844 2C747.844 2 748.477 53.1175 748.929 78.6989C748.839 79.3714 748.913 80.0555 749.145 80.6931C749.378 81.3306 749.761 81.9025 750.262 82.3598C751.023 82.7396 751.883 82.8738 752.724 82.7439L769.259 81.8399C769.957 81.8864 770.65 81.6953 771.225 81.2976C771.712 80.7699 772.006 80.093 772.061 79.3768L773.642 2.54234H773.755C774.207 14.5873 776.556 77.9983 776.759 82.4501C776.765 82.5121 776.794 82.5697 776.84 82.6115C776.886 82.6534 776.946 82.6763 777.008 82.6761L804.522 83.1054C804.59 83.1111 804.653 83.1422 804.699 83.1925C804.745 83.2427 804.771 83.3084 804.771 83.3766C804.771 94.9771 804.771 106.555 804.771 118.11C804.771 142.863 804.853 167.608 805.019 192.346C805.185 217.084 805.275 241.633 805.29 265.994C805.29 272.57 805.29 279.169 805.29 285.745C805.29 291.146 804.093 297.451 806.465 302.536C807.91 305.632 810.508 305.541 812.474 307.779C814.439 310.016 814.349 314.558 814.394 317.225C814.733 334.399 813.648 371.732 814.258 374.941C814.269 374.999 814.3 375.051 814.345 375.088C814.391 375.125 814.448 375.145 814.507 375.144C817.714 375.144 865.085 375.393 868.722 374.941C868.755 374.938 868.786 374.929 868.816 374.914C868.845 374.898 868.87 374.877 868.891 374.852C868.912 374.827 868.928 374.798 868.938 374.767C868.948 374.735 868.951 374.702 868.948 374.67L871.207 245.226C871.201 245.185 871.206 245.143 871.221 245.105C871.236 245.066 871.26 245.032 871.291 245.005C871.323 244.978 871.361 244.959 871.401 244.951C871.441 244.942 871.483 244.943 871.523 244.955C873.782 245.43 907.938 246.537 911.778 246.808C911.84 246.814 911.897 246.842 911.939 246.888C911.981 246.934 912.004 246.995 912.004 247.057C911.462 263.599 910.603 450.849 909.745 467.504C909.739 467.572 909.708 467.635 909.658 467.681C909.608 467.727 909.542 467.753 909.474 467.752L704.133 470.283H748.793C748.828 470.286 748.862 470.282 748.895 470.271C748.928 470.26 748.958 470.242 748.984 470.219C749.009 470.196 749.03 470.167 749.043 470.135C749.057 470.104 749.064 470.069 749.064 470.035C749.268 466.645 750.058 429.629 750.149 426.217C750.149 426.145 750.177 426.076 750.228 426.025C750.279 425.974 750.348 425.945 750.42 425.945L762.392 425.584C762.427 425.587 762.461 425.583 762.494 425.572C762.527 425.561 762.557 425.543 762.583 425.519C762.608 425.496 762.629 425.468 762.642 425.436C762.656 425.404 762.663 425.37 762.663 425.335L763.973 403.302C763.973 403.23 764.002 403.161 764.053 403.11C764.104 403.059 764.173 403.031 764.245 403.031L776.104 402.782C776.176 402.782 776.245 402.753 776.296 402.703C776.347 402.652 776.375 402.583 776.375 402.511C776.375 400.726 776.262 390.624 776.375 385.833C776.381 385.759 776.414 385.69 776.469 385.64C776.523 385.59 776.595 385.562 776.669 385.562L795.802 385.291C795.874 385.291 795.943 385.262 795.994 385.211C796.045 385.161 796.073 385.092 796.073 385.02L796.819 304.931C796.819 304.859 796.847 304.79 796.898 304.739C796.949 304.689 797.018 304.66 797.09 304.66C804.274 304.66 845.432 303.914 845.432 303.914C845.502 303.919 845.568 303.95 845.618 303.999C845.668 304.049 845.698 304.115 845.703 304.185L847.668 383.28C847.674 383.35 847.704 383.416 847.754 383.466C847.803 383.515 847.869 383.546 847.939 383.551L862.284 383.958C862.352 383.963 862.415 383.994 862.461 384.045C862.507 384.095 862.533 384.161 862.532 384.229L863.075 401.923C863.079 401.99 863.106 402.053 863.151 402.103C863.196 402.152 863.257 402.184 863.323 402.194L877.69 402.646C877.848 402.646 877.939 402.646 877.939 402.895C877.939 404.861 878.345 418.33 878.323 423.64C878.239 424.614 878.402 425.594 878.797 426.488C880.807 430.058 887.539 426.488 890.092 429.629C890.765 430.741 891.066 432.04 890.95 433.335C891.131 445.38 892.735 457.063 893.367 469.086C893.367 469.152 893.394 469.215 893.44 469.261C893.487 469.308 893.55 469.334 893.616 469.334C896.146 469.334 917.109 469.04 919.684 468.995C919.75 468.995 919.813 468.969 919.86 468.922C919.907 468.876 919.933 468.813 919.933 468.747C920.091 463.233 922.689 370.85 923.095 361.653C923.863 344.026 923.299 326.241 923.366 308.592C923.366 296.728 923.366 284.864 923.615 273C923.615 268.48 923.615 264.164 923.818 259.757C923.818 257.746 923.276 253.994 924.135 252.141C924.22 251.793 924.273 251.437 924.293 251.079C929.579 249.452 935.723 249.949 941.258 249.746C941.329 249.746 941.398 249.717 941.449 249.666C941.5 249.616 941.529 249.547 941.529 249.475C941.529 247.102 941.212 229.362 941.529 228.797C944.371 227.889 947.289 227.238 950.248 226.854C950.248 226.854 952.62 226.854 952.665 226.854C955.195 224.097 953.614 160.098 955.421 145.5C955.579 147.511 955.918 213.114 957.341 224.888C957.362 225.271 957.454 225.646 957.612 225.995H969.517L971.347 144.912L972.861 226.831L982.009 227.193C982.077 227.205 982.139 227.238 982.187 227.286C982.235 227.335 982.268 227.397 982.28 227.464L983.229 251.26C983.226 251.294 983.23 251.327 983.241 251.359C983.252 251.391 983.27 251.42 983.294 251.444C983.318 251.467 983.347 251.486 983.379 251.497C983.41 251.508 983.444 251.512 983.478 251.509C989.577 251.915 999.403 251.509 1005.55 251.983C1005.59 251.986 1005.62 251.996 1005.66 252.014C1005.69 252.032 1005.72 252.056 1005.74 252.086C1005.77 252.116 1005.78 252.15 1005.79 252.187C1005.8 252.224 1005.8 252.262 1005.8 252.299C1005.21 256.458 1005.43 304.886 1005.01 305.36C1004.58 305.835 976 305.496 972.68 305.473C972.642 305.473 972.605 305.481 972.571 305.496C972.536 305.511 972.505 305.533 972.48 305.561C972.454 305.588 972.435 305.621 972.423 305.656C972.41 305.692 972.406 305.73 972.409 305.767C972.815 312.547 969.698 438.713 969.743 473.153C969.743 473.225 969.772 473.294 969.823 473.345C969.873 473.396 969.942 473.425 970.014 473.425H985.127C985.199 473.425 985.268 473.396 985.318 473.345C985.369 473.294 985.398 473.225 985.398 473.153C985.511 466.193 988.176 320.388 988.109 313.247C988.105 313.213 988.11 313.178 988.121 313.145C988.132 313.112 988.149 313.082 988.173 313.057C988.196 313.031 988.225 313.011 988.256 312.997C988.288 312.983 988.322 312.976 988.357 312.976C991.655 312.976 1023.33 313.202 1023.37 313.383C1023.42 313.564 1024.48 333.993 1024.61 336.456C1024.61 336.49 1024.62 336.525 1024.63 336.556C1024.65 336.588 1024.67 336.617 1024.69 336.64C1024.72 336.664 1024.75 336.681 1024.78 336.692C1024.82 336.703 1024.85 336.708 1024.88 336.704L1053.55 337.315C1053.62 337.315 1053.69 337.343 1053.74 337.394C1053.79 337.445 1053.82 337.514 1053.82 337.586L1052.38 472.905C1052.37 472.943 1052.38 472.982 1052.39 473.019C1052.4 473.055 1052.43 473.088 1052.45 473.114C1052.48 473.141 1052.52 473.16 1052.56 473.171C1052.59 473.181 1052.63 473.183 1052.67 473.176C1056.48 472.78 1060.32 472.666 1064.15 472.837C1064.18 472.848 1064.22 472.849 1064.26 472.842C1064.3 472.834 1064.34 472.818 1064.37 472.793C1064.4 472.769 1064.42 472.738 1064.44 472.702C1064.46 472.667 1064.46 472.628 1064.46 472.588L1065.21 304.366C1065.21 304.294 1065.24 304.225 1065.29 304.174C1065.34 304.124 1065.41 304.095 1065.48 304.095L1099.36 304.231C1099.43 304.231 1099.5 304.259 1099.55 304.31C1099.61 304.361 1099.63 304.43 1099.63 304.502L1101.01 454.126C1101.02 454.2 1101.05 454.269 1101.11 454.319C1101.16 454.369 1101.23 454.397 1101.31 454.397H1116.26C1116.33 454.397 1116.39 454.372 1116.44 454.325C1116.49 454.279 1116.53 454.216 1116.53 454.148C1117.12 431.324 1118.25 387.121 1118.36 383.347C1118.36 383.313 1118.37 383.279 1118.38 383.247C1118.4 383.215 1118.42 383.187 1118.44 383.163C1118.47 383.14 1118.5 383.122 1118.53 383.111C1118.56 383.1 1118.6 383.096 1118.63 383.099L1162.84 383.89C1162.91 383.895 1162.98 383.925 1163.03 383.975C1163.08 384.025 1163.11 384.091 1163.11 384.161C1163.11 388.161 1164.29 437.154 1163.72 441.493C1163.71 441.532 1163.72 441.572 1163.73 441.611C1163.74 441.649 1163.76 441.685 1163.78 441.715C1163.81 441.745 1163.84 441.769 1163.88 441.785C1163.91 441.802 1163.95 441.81 1163.99 441.809L1228.91 441.357C1228.99 441.363 1229.06 441.397 1229.11 441.451C1229.16 441.506 1229.19 441.577 1229.19 441.651L1229.32 467.029C1229.32 467.101 1229.35 467.17 1229.4 467.221C1229.45 467.272 1229.52 467.3 1229.59 467.3L1243.33 467.436C1243.4 467.436 1243.47 467.407 1243.52 467.356C1243.57 467.306 1243.6 467.237 1243.6 467.165C1243.6 465.425 1243.78 456.114 1243.82 454.442C1243.82 454.408 1243.82 454.374 1243.84 454.343C1243.85 454.311 1243.87 454.282 1243.89 454.258C1243.91 454.234 1243.94 454.216 1243.97 454.205C1244.01 454.194 1244.04 454.19 1244.07 454.193L1292.05 454.329C1292.12 454.333 1292.18 454.36 1292.23 454.405C1292.28 454.451 1292.31 454.511 1292.32 454.577L1292.84 467.391C1292.84 467.463 1292.87 467.532 1292.92 467.583C1292.97 467.633 1293.04 467.662 1293.11 467.662C1324.74 467.662 1369.92 467.12 1401.43 466.08C1401.58 466.076 1401.72 466.112 1401.84 466.184C1401.96 466.256 1402.07 466.361 1402.13 466.487" stroke="#E65300" stroke-width="3" stroke-linecap="round" stroke-linejoin="round"/>
</svg>
